PathFileType	4	(X/Y/Z)	S00_P01_T02_Participants1-2_P1_0-100.trc
DataRate	CameraRate	NumFrames	NumMarkers	Units	OrigDataRate	OrigDataStartFrame	OrigNumFrames
60	60	4	21	m	60	0	100
Frame#	Time	RHip			RKnee			RAnkle			RBigToe			RSmallToe			RHeel			LHip			LKnee			LAnkle			LBigToe			LSmallToe			LHeel			Neck			Head			Nose			RShoulder			RElbow			RWrist			LShoulder			LElbow			LWrist		
		X1	Y1	Z1	X2	Y2	Z2	X3	Y3	Z3	X4	Y4	Z4	X5	Y5	Z5	X6	Y6	Z6	X7	Y7	Z7	X8	Y8	Z8	X9	Y9	Z9	X10	Y10	Z10	X11	Y11	Z11	X12	Y12	Z12	X13	Y13	Z13	X14	Y14	Z14	X15	Y15	Z15	X16	Y16	Z16	X17	Y17	Z17	X18	Y18	Z18	X19	Y19	Z19	X20	Y20	Z20	X21	Y21	Z21
1	0.0166666666666666	-1.0510237300759342	0.9361947580789577	-0.9743467765585025	-0.8758380369097841	0.9255623796251158	-0.7312800249789937	-0.8709628362113445	0.8972285238642079	-0.9648634583483329	-0.771109858571586	0.8914345998749722	-1.0386046071917159	-0.7938711436394604	0.870947742214517	-1.0334738883952115	-0.8911624279931143	0.9025954658399448	-1.0082785004287524	-1.051575372409609	0.9368099719251306	-1.1185269283817205	-0.8780176411506265	0.9280431764086817	-1.3567345647276192	-0.8897191725036132	0.9059841211040218	-1.1238636369961315	-0.789208563567467	0.8977721898453498	-1.0578991468689098	-0.812940516611985	0.8779802028333237	-1.0617778499977497	-0.9115339515696168	0.9126268381686605	-1.0792815751219644	-1.072726836500859	1.3461900113450493	-1.0457897788370127	-1.0379603398708668	1.5037024229714755	-1.0581692655598098	-0.9874821744414619	1.4093474607060394	-1.0444348333580757	-1.079946471393852	1.2931206109398325	-0.913841524317471	-1.0413488538494515	1.1194602608979074	-0.828362490926516	-0.8903600737111411	1.030934311894519	-0.9114497602754064	-1.0808611731779714	1.2941872329894741	-1.1782826979702559	-1.0443948685623916	1.1218231537617087	-1.2646224841819447	-0.905013385833584	1.0510400909193705	-1.1430137875985353
2	0.0333333333333333	-1.0522707519010424	0.9395878463645041	-0.9751689029896831	-0.8770611668890762	0.9289840157622652	-0.7324645667188011	-0.8736147430854897	0.9012716330409494	-0.9659463399475213	-0.7741837488149197	0.8955822959788853	-1.0403220878964263	-0.7969290317836497	0.8751035124286103	-1.035084392616711	-0.894056019477216	0.9067605821913095	-1.0091831764677555	-1.052810495026003	0.9401874772314351	-1.1192482296960184	-0.879236677584794	0.9314123618880432	-1.3574707890530577	-0.8909438023204121	0.9093815150533449	-1.1247385520521425	-0.7904226824572453	0.9011842623622698	-1.0589117157805483	-0.8141514561569666	0.8813931224510498	-1.0627558714168392	-0.9127629666033475	0.9160253458799197	-1.080168921325133	-1.073755932089062	1.349560810900564	-1.046461020916511	-1.0379777108724528	1.5073005476706256	-1.0581773554002434	-0.9888562398982607	1.4126389249308242	-1.0454840466471729	-1.0847554785121432	1.2957182204814965	-0.9173290819003185	-1.0423870426898854	1.1216538297135923	-0.8315574262568364	-0.8899607107305442	1.0353607284391086	-0.9144209126213616	-1.0821875329343722	1.2974683184947386	-1.179036821000844	-1.0456671705677532	1.1251395774896324	-1.2653052073757471	-0.9064661752863283	1.0564696169037382	-1.142354330527259
3	0.05	-1.0528120932885945	0.943066437746376	-0.9755205667915687	-0.8775929560347644	0.9324744717688185	-0.732968912737445	-0.8755608044757356	0.9053828568023061	-0.9664504432433645	-0.776555442162028	0.8997960584225466	-1.0414321153896349	-0.799286624905455	0.8793242667663443	-1.036104251245307	-0.8962387728626398	0.9109956029983856	-1.0095376962889007	-1.0533463018969742	0.9436591519017475	-1.1195565028895187	-0.8797643750245329	0.9348796372434057	-1.3577837159074928	-0.8914747101845698	0.9128613225673766	-1.1251112809492732	-0.7909491825655324	0.9046702668664315	-1.0593423781680438	-0.8146765933364912	0.884879438103559	-1.0631719574179934	-0.913295958111598	0.9195057589662916	-1.0805471521027767	-1.074245250680984	1.3530223051964367	-1.046772465943708	-1.0379949105579946	1.5108636179085904	-1.0581853500352139	-0.989436445754175	1.4160798319359105	-1.0459169246119289	-1.0890035243942529	1.2983974285657867	-0.9204103416054612	-1.0426887379418903	1.123964680542135	-0.834151163336023	-0.8888719280109698	1.0398650014667248	-0.9167301940670731	-1.082763527813617	1.300900135863749	-1.1793561969337218	-1.046218930080093	1.1285854767497263	-1.2655950383260501	-0.9072071080072345	1.06198377557184	-1.141195579844589
4	0.0666666666666666	-1.0526289851991208	0.9466133194762637	-0.9753893011041088	-0.8774150076583027	0.9360160952926553	-0.7327750721134697	-0.8767744252494601	0.9095415005666904	-0.9663571922814382	-0.7781970162471519	0.9040551120047323	-1.0419113369112338	-0.8009159922896677	0.8835891087071988	-1.0365109990103998	-0.8976824251580247	0.9152791539376436	-1.0093244540148414	-1.0531641970500716	0.9472080149668349	-1.1194408006228342	-0.8795823594859132	0.9384281324583081	-1.3576621389355625	-0.8912934509210322	0.9164062542630182	-1.1249685300968528	-0.7907697788778044	0.9082126897744789	-1.0591757414324685	-0.8144976912185542	0.888421622552118	-1.063011242195739	-0.9131144181400394	0.9230507734605615	-1.0804027892698205	-1.074440074488626	1.3564956422100163	-1.046889236979301	-1.0380118388264694	1.514371251406482	-1.0581931900328032	-0.9891865584150192	1.419658243522139	-1.0457052716010964	-1.0924337206870016	1.3011913017367793	-0.9228991968414104	-1.042237089093831	1.1263904711651727	-0.8361194228466713	-0.8870919906578602	1.0444269126982761	-0.918337499796694	-1.0825692046231574	1.3044671892371464	-1.1792293140013488	-1.0460309913058896	1.1321448021931277	-1.2654815700103796	-0.9072228893948138	1.0675576103727842	-1.1395386579710416
